
<svg width="30px" height="30px" viewBox="0 0 30 30" version="1.1" xmlns="http://www.w3.org/2000/svg" xmlns:xlink="http://www.w3.org/1999/xlink">
    <g stroke="none" stroke-width="1" fill="none" fill-rule="evenodd">
        <g transform="translate(-290.000000, -624.000000)" fill="#C9FA4B" fill-rule="nonzero">
            <g transform="translate(0.000000, -792.000000)">
                <g transform="translate(269.500000, 1254.000000)">
                    <g transform="translate(0.500000, 140.000000)">
                        <path d="M26.9300479,39.1445186 C26.9300479,39.1574413 26.9171018,39.170364 26.8918569,39.1955632 L23.4203599,40.6713332 L23.4074138,40.6713332 C23.4074138,40.6713332 23.3944677,40.6713332 23.3815216,40.6584105 L20.587753,37.8832651 C20.5748069,37.8703425 20.5618608,37.8444971 20.5748069,37.8328667 C20.587753,37.819944 20.6006991,37.8070213 20.6136452,37.8070213 L20.625944,37.8070213 L26.8925042,39.1070429 C26.9183964,39.1070429 26.9313425,39.1199655 26.9313425,39.1445186 L26.9300479,39.1445186 Z M27.2621154,38.2741762 C27.2491693,38.2741762 27.2491693,38.2741762 27.2621154,38.2741762 L20.038191,36.7602843 C20.0122988,36.7602843 20,36.7473616 20,36.7344389 C20,36.7228085 20,36.7098858 20.0129461,36.6976093 L24.0456566,32.7109627 C24.0456566,32.6980401 24.0586027,32.6980401 24.0715488,32.6980401 C24.0967937,32.7109627 24.0967937,32.7109627 24.1103871,32.7232393 C24.1103871,32.736162 27.5682907,37.7320698 27.607129,37.7824682 C27.6200751,37.7953909 27.6200751,37.8205901 27.607129,37.8328667 C27.4919087,37.9588628 27.3766884,38.0977816 27.3009537,38.248977 C27.2880076,38.2612535 27.2750615,38.2748223 27.2621154,38.2748223 L27.2621154,38.2741762 Z M28.7683943,28.1188886 C28.7554482,28.105966 28.742502,28.105966 28.7554482,28.0807667 C28.7554482,28.0678441 28.7554482,28.0562137 28.7683943,28.0426448 L34.8439995,22.0129227 C34.8439995,22 34.8569456,22 34.8698917,22 C34.8828378,22 34.8828378,22 34.8957839,22.0129227 L37.5115436,24.5993969 C37.5244897,24.6116735 37.5244897,24.6368727 37.5115436,24.6497954 L34.359168,29.5319836 C34.3462219,29.5442602 34.3332758,29.5571829 34.3203297,29.5571829 L34.3080309,29.5571829 C33.809305,29.3942964 33.2618966,29.4939545 32.8528891,29.8220978 C32.839943,29.8350205 32.839943,29.8350205 32.8276442,29.8350205 L32.8146981,29.8350205 C32.648988,29.7587767 28.7690416,28.1188886 28.7690416,28.1188886 L28.7683943,28.1188886 Z M28.3981358,37.3527891 L24.7732275,32.0674133 C24.7602814,32.0551368 24.7602814,32.0299375 24.7732275,32.0170149 L28.0278773,28.7876373 C28.0278773,28.7747146 28.0408234,28.7747146 28.0537695,28.7747146 L28.0667156,28.7747146 C28.0667156,28.7876373 31.9078238,30.4023261 32.3421655,30.5916433 C32.3544642,30.604566 32.3680577,30.6161964 32.3680577,30.6420418 C32.2522831,31.1356124 32.3967672,31.6540345 32.7512622,32.0170149 C32.7629137,32.0299375 32.7629137,32.0557829 32.7506149,32.0674133 L29.330255,37.3657118 C29.3173089,37.3786345 29.3043628,37.3915572 29.2914167,37.3915572 L29.2784706,37.3915572 C29.1372282,37.3519549 28.9914647,37.3306728 28.8447762,37.3282361 C28.7166098,37.3282361 28.576792,37.3527891 28.4492729,37.3786345 L28.4363268,37.3786345 C28.4233807,37.3786345 28.4110819,37.3657118 28.3974885,37.3527891 L28.3981358,37.3527891 Z M29.5852932,40.6454878 L36.349631,50.4602628 C36.3625771,50.4731854 36.3625771,50.4983847 36.349631,50.5113073 L34.8692444,51.9870773 C34.8692444,52 34.8562983,52 34.8433522,52 C34.8433522,52 34.8304061,52 34.81746,51.9870773 L26.3694817,43.6228731 C26.3565356,43.6105966 26.3565356,43.5853974 26.3694817,43.5724747 L26.3824278,43.559552 L28.2207742,40.708809 C28.233073,40.6965324 28.2460191,40.6836097 28.2583179,40.6836097 L28.271264,40.6836097 C28.462219,40.7469309 28.6415225,40.7721301 28.8324775,40.7721301 C29.0752168,40.7721301 29.3050101,40.7210855 29.5348034,40.6209347 L29.5477495,40.6209347 C29.5606956,40.6209347 29.5736417,40.6338574 29.5859405,40.6454878 L29.5852932,40.6454878 Z M27.4919087,40.154426 C27.5048548,40.1660564 27.5048548,40.1789791 27.5048548,40.1789791 L25.7558365,42.8908034 C25.7428904,42.903726 25.7299443,42.9166487 25.7182928,42.9166487 C25.7182928,42.9166487 25.7053467,42.9166487 25.6924006,42.903726 L24.1479308,41.3775576 C24.1349847,41.3646349 24.1349847,41.3517123 24.1349847,41.3400818 C24.1349847,41.3271592 24.1479308,41.3142365 24.1608769,41.3142365 L27.3261986,39.9644626 L27.3391447,39.9644626 C27.3514435,39.9644626 27.3643896,39.9773853 27.3766884,39.9896619 C27.4155267,40.052983 27.4537177,40.1033814 27.4919087,40.154426 L27.4919087,40.154426 Z M30.5679023,38.9300022 C30.5679023,38.8292053 30.5420101,38.7406849 30.529064,38.639888 C30.529064,38.6140426 30.529064,38.6017661 30.5549562,38.5901357 L39.630173,34.7165626 L39.6431191,34.7165626 C39.6431191,34.7165626 39.6554179,34.7165626 39.668364,34.7294852 C39.7317999,34.7921602 39.782937,34.8302821 39.8340741,34.8677579 C39.8599663,34.8677579 39.8599663,34.8936033 39.8599663,34.906526 L39.0683123,39.7622227 C39.0683123,39.7880681 39.0553662,39.8009907 39.029474,39.8009907 C38.5957796,39.8255438 38.212575,40.0788283 37.9963751,40.4568167 C37.983429,40.4690933 37.9704829,40.4826621 37.9575368,40.4826621 L37.9445907,40.4826621 L30.6060933,38.9681241 C30.5802011,38.9681241 30.567255,38.9552014 30.567255,38.9300022 L30.5679023,38.9300022 Z M38.6216718,42.2737454 C38.647564,42.2853758 38.647564,42.3112212 38.6216718,42.3112212 L37.472058,49.3747577 C37.472058,49.3876804 37.4591119,49.3876804 37.4591119,49.4006031 L37.0506624,49.8037907 C37.0506624,49.8167133 37.0377163,49.8167133 37.0254175,49.8167133 C37.0124714,49.8167133 37.0124714,49.8167133 36.9995253,49.8037907 L30.2610797,40.0652595 C30.2481336,40.0523369 30.2481336,40.0264915 30.2610797,40.0148611 C30.299918,39.9638165 30.3245156,39.913418 30.3633539,39.8507431 C30.3756527,39.8378204 30.3885988,39.8248977 30.4008976,39.8248977 L30.4138437,39.8248977 L37.8164243,41.3517123 C37.8423165,41.3646349 37.8552626,41.3775576 37.8552626,41.389188 C37.9563684,41.787995 38.2402629,42.1156916 38.6210245,42.2730993 L38.6216718,42.2737454 Z M44.1988521,42.6775792 C44.2117982,42.6775792 44.2247443,42.6892096 44.2247443,42.7273315 C44.2247443,42.7402541 44.2247443,42.7531768 44.2117982,42.7648072 L38.6728089,48.2530691 C38.6728089,48.2659918 38.6598628,48.2659918 38.6469167,48.2659918 L38.6210245,48.2659918 C38.6080784,48.2530691 38.5957796,48.2401465 38.5957796,48.2149472 L39.553791,42.3364204 C39.553791,42.3234977 39.5660898,42.2982985 39.5783886,42.2982985 C39.8047281,42.2087208 40.0031161,42.060645 40.1531955,41.8692656 C40.1654943,41.8692656 40.1790877,41.856989 40.1920338,41.856989 L40.2043326,41.856989 L44.1988521,42.6775792 L44.1988521,42.6775792 Z M39.2469685,33.5186302 C39.2599146,33.5309067 39.2728607,33.5431833 39.2728607,33.5683825 C39.2599146,33.6317036 39.2469685,33.7073013 39.2469685,33.782899 L39.2469685,33.8966186 C39.2469685,33.9095412 39.2340224,33.9218178 39.2210763,33.9340943 L30.1976438,37.7818221 L30.1846977,37.7818221 C30.1717516,37.7818221 30.1588055,37.7818221 30.1465067,37.7701917 C30.1335606,37.757269 30.1335606,37.7314236 30.1465067,37.718501 L33.5293229,32.4835236 C33.5416217,32.4706009 33.5545678,32.4583244 33.5668666,32.4583244 L33.5798127,32.4583244 C33.6691408,32.471247 33.7461701,32.4835236 33.8225521,32.4835236 C34.3332758,32.4835236 34.8051612,32.2315313 35.0860916,31.8024984 C35.0990377,31.7895757 35.1119838,31.7772992 35.1242826,31.7772992 L35.1372287,31.7772992 L39.2463211,33.5186302 L39.2469685,33.5186302 Z M49.2025202,37.7314236 C49.214819,37.7443463 49.214819,37.757269 49.214819,37.7701917 C49.214819,37.7818221 49.214819,37.7947448 49.2018729,37.8076675 L45.040996,41.9325867 C45.040996,41.9455094 45.0286972,41.9455094 45.0151038,41.9455094 L45.0034523,41.9455094 L40.4593708,40.9989231 C40.4334786,40.9989231 40.4205325,40.9860004 40.4205325,40.9614473 C40.388201,40.6127815 40.2126913,40.2930383 39.935701,40.0781822 C39.9227549,40.0652595 39.9227549,40.0523369 39.9227549,40.0400603 L40.7273551,35.1074736 C40.7273551,35.0829205 40.7532473,35.0693517 40.7655461,35.0693517 C41.1116211,35.026498 41.4251628,34.8444547 41.6335822,34.5653672 C41.6465283,34.5524445 41.6594744,34.5524445 41.6724205,34.5524445 L41.6847193,34.5524445 L49.2025202,37.7314236 L49.2025202,37.7314236 Z M49.9805808,36.9748008 C50.0064731,36.9877235 50.0064731,37.0251992 49.9805808,37.0251992 L49.9546886,37.0503984 C49.9546886,37.0633211 49.9417425,37.0633211 49.9294437,37.0633211 L49.9164976,37.0633211 L42.08087,33.7447771 C42.0679239,33.7447771 42.0549778,33.720224 42.0549778,33.7073013 C42.0549778,33.6950248 42.0679239,33.681456 42.08087,33.6698255 L45.2591378,32.3194056 L45.2720839,32.3194056 C45.2720839,32.3194056 45.28503,32.3194056 45.2973288,32.3323282 L49.9812282,36.9748008 L49.9805808,36.9748008 Z M35.0731455,30.1496877 C35.0601994,30.136765 35.0601994,30.1122119 35.0731455,30.0863666 L38.1491391,25.3178979 C38.1491391,25.3056214 38.1620852,25.2933448 38.1750313,25.2933448 C38.1879774,25.2933448 38.1879774,25.2933448 38.2002762,25.3062675 L40.9319035,28.0180918 C40.9448496,28.0310144 40.9448496,28.0426448 40.9448496,28.0562137 L40.2295775,32.4835236 C40.2295775,32.5093689 40.2166314,32.5216455 40.2036853,32.5216455 C40.0419217,32.5687351 39.8904283,32.6456598 39.7570448,32.7484385 C39.7570448,32.7613612 39.744746,32.7613612 39.7317999,32.7613612 L39.7188538,32.7613612 L35.3540759,30.9069567 C35.3411298,30.894034 35.3281837,30.8817575 35.3281837,30.8681887 C35.3014193,30.611897 35.2140036,30.3656272 35.0731455,30.1496877 L35.0731455,30.1496877 Z M41.1610495,32.6095197 C41.1481034,32.6095197 41.1351573,32.5843205 41.1228585,32.5720439 L41.7229103,28.9013569 C41.7229103,28.8755115 41.7358564,28.8625888 41.7488025,28.8625888 L41.7617486,28.8625888 C41.7617486,28.8625888 41.7734001,28.8625888 41.7869935,28.8755115 L44.5309196,31.5879819 C44.5438657,31.6009046 44.5438657,31.6138273 44.5438657,31.6261038 C44.5438657,31.6383804 44.5309196,31.6506569 44.5179735,31.6635796 L41.5824451,32.9125565 L41.569499,32.9125565 C41.5565529,32.9125565 41.5565529,32.9125565 41.5436068,32.8996339 C41.4357298,32.7795261 41.3058903,32.6810616 41.1610495,32.6095197 L41.1610495,32.6095197 Z"></path>
                    </g>
                </g>
            </g>
        </g>
    </g>
</svg>