
<svg width="30px" height="30px" viewBox="0 0 30 30" version="1.1" xmlns="http://www.w3.org/2000/svg" xmlns:xlink="http://www.w3.org/1999/xlink">
    <g stroke="none" stroke-width="1" fill="none" fill-rule="evenodd">
        <g transform="translate(-290.000000, -536.000000)" fill-rule="nonzero">
            <g transform="translate(0.000000, -792.000000)">
                <g transform="translate(269.500000, 1254.000000)">
                    <g transform="translate(0.500000, 52.000000)">
                        <g transform="translate(20.000000, 22.000000)">
                            <path d="M26.7857143,15 L19.2857143,15 L19.2857143,17.1428571 L24.4285714,17.1428571 C23.6785714,20.3571429 21.3214286,23.0357143 18.2142857,24.1071429 L5.89285714,11.7857143 C7.17857143,8.03571429 10.8214286,5.35714286 15,5.35714286 C18.2142857,5.35714286 21.1071429,6.96428571 22.9285714,9.42857143 L24.5357143,8.03571429 C22.3928571,5.14285714 18.9642857,3.21428571 15,3.21428571 C9.42857143,3.21428571 4.71428571,7.17857143 3.53571429,12.4285714 L17.6785714,26.5714286 C22.8214286,25.2857143 26.7857143,20.5714286 26.7857143,15 Z M3.21428571,15.1071429 C3.21428571,18.1071429 4.39285714,21 6.64285714,23.25 C8.89285714,25.5 11.8928571,26.6785714 14.7857143,26.6785714 L3.21428571,15.1071429 Z" fill="#FFFFFF"></path>
                            <path d="M15,0 C6.75,0 0,6.75 0,15 C0,23.25 6.75,30 15,30 C23.25,30 30,23.25 30,15 C30,6.75 23.25,0 15,0 Z M6.64285714,23.3571429 C4.39285714,21.1071429 3.21428571,18.1071429 3.21428571,15.2142857 L14.8928571,26.7857143 C11.8928571,26.6785714 8.89285714,25.6071429 6.64285714,23.3571429 Z M17.5714286,26.4642857 L3.53571429,12.4285714 C4.71428571,7.17857143 9.42857143,3.21428571 15,3.21428571 C18.9642857,3.21428571 22.3928571,5.14285714 24.5357143,8.03571429 L22.9285714,9.42857143 C21.1071429,6.96428571 18.2142857,5.35714286 15,5.35714286 C10.8214286,5.35714286 7.28571429,8.03571429 5.89285714,11.7857143 L18.2142857,24.1071429 C21.3214286,23.0357143 23.6785714,20.3571429 24.4285714,17.1428571 L19.2857143,17.1428571 L19.2857143,15 L26.7857143,15 C26.7857143,20.5714286 22.8214286,25.2857143 17.5714286,26.4642857 Z" fill="#663399"></path>
                        </g>
                    </g>
                </g>
            </g>
        </g>
    </g>
</svg>