
<svg width="30px" height="27px" viewBox="0 0 30 27" version="1.1" xmlns="http://www.w3.org/2000/svg" xmlns:xlink="http://www.w3.org/1999/xlink">
    <g stroke="none" stroke-width="1" fill="none" fill-rule="evenodd">
        <path d="M21.1363636,1.71439751e-13 C23.0183347,0.0019532217 24.5434816,1.51183894 24.5454545,3.37497838 L24.5454545,3.37497838 L24.5454545,15.5249005 C24.5434816,17.38804 23.0183347,18.8979257 21.1363636,18.8998789 L21.1363636,18.8998789 L14.5452273,18.8998789 L9.27245455,22.8153938 C9.06571271,22.96842 8.7894288,22.9928078 8.55860134,22.8784061 C8.32777388,22.7640043 8.1819468,22.5304117 8.18181818,22.2748573 L8.18181818,22.2748573 L8.18181818,18.8998789 L3.40909091,18.8998789 C1.52711982,18.8979257 0.00197296385,17.38804 5.68434189e-14,15.5249005 L5.68434189e-14,15.5249005 L5.68434189e-14,3.37497838 C0.00197296385,1.51183894 1.52711982,0.0019532217 3.40909091,1.71439751e-13 L3.40909091,1.71439751e-13 Z M12.2727273,2.6999827 C8.50714943,2.6999827 5.45454545,5.72204128 5.45454545,9.44993945 C5.45454545,13.1778376 8.50714943,16.1998962 12.2727273,16.1998962 C16.0364672,16.1955072 19.0864757,13.1760181 19.0909091,9.44993945 C19.0909091,5.72204128 16.0383051,2.6999827 12.2727273,2.6999827 Z M14.962125,10.1249351 C14.8096705,12.4032818 13.9254886,14.0747061 12.9545455,14.629755 L12.9545455,14.629755 L12.9545455,10.1249351 Z M11.5909091,10.1249351 L11.5909091,14.629755 C10.6199659,14.0747061 9.73578409,12.4032818 9.58332955,10.1249351 L9.58332955,10.1249351 L11.5909091,10.1249351 Z M8.22184091,10.1249351 C8.2754252,11.4385182 8.60794117,12.7261904 9.19772727,13.9040672 C7.91736672,13.0291567 7.07636335,11.653671 6.88707955,10.1249351 L6.88707955,10.1249351 Z M17.658375,10.1249351 C17.4690912,11.653671 16.6280878,13.0291567 15.3477273,13.9040672 C15.9375134,12.7261904 16.2700293,11.4385182 16.3236136,10.1249351 L16.3236136,10.1249351 Z M12.9545455,4.27012389 C13.9254886,4.82517283 14.8096705,6.49659713 14.962125,8.77494378 L14.962125,8.77494378 L12.9545455,8.77494378 Z M11.5909091,4.27012389 L11.5909091,8.77494378 L9.58332955,8.77494378 C9.73578409,6.49659713 10.6199659,4.82517283 11.5909091,4.27012389 L11.5909091,4.27012389 Z M15.3477273,4.99581174 C16.6280878,5.87072223 17.4690912,7.24620787 17.658375,8.77494378 L17.658375,8.77494378 L16.3236136,8.77494378 C16.2700293,7.46136066 15.9375134,6.17368847 15.3477273,4.99581174 Z M9.19772727,4.99581174 C8.60794117,6.17368847 8.2754252,7.46136066 8.22184091,8.77494378 L8.22184091,8.77494378 L6.88707955,8.77494378 C7.07636335,7.24620787 7.91736672,5.87072223 9.19772727,4.99581174 Z" fill="#75FFE2"></path>
        <path d="M26.5909091,4.04997405 C26.2143513,4.04997405 25.9090909,4.35217991 25.9090909,4.72496973 C25.9090909,5.09775954 26.2143513,5.3999654 26.5909091,5.3999654 C27.7200684,5.40119302 28.6351236,6.30709187 28.6363636,7.42495243 L28.6363636,19.5748746 C28.6351236,20.6927351 27.7200684,21.598634 26.5909091,21.5998616 L21.1363636,21.5998616 C20.9555009,21.5997541 20.7820147,21.670835 20.6541254,21.7974445 C20.5262362,21.9240541 20.4544368,22.0958044 20.4545455,22.2748573 L20.4545455,24.97484 L16.0906364,21.7343207 C15.7890889,21.510796 15.3616022,21.5715998 15.1358182,21.8701299 C14.9100342,22.16866 14.9714525,22.591869 15.273,22.8153938 L20.7275455,26.8653679 C20.9342566,27.0185306 21.2106134,27.0429936 21.4414927,26.9285661 C21.6723721,26.8141387 21.818182,26.5804433 21.8181818,26.3248313 L21.8181818,22.949853 L26.5909091,22.949853 C28.4728802,22.9478997 29.998027,21.438014 30,19.5748746 L30,7.42495243 C29.998027,5.56181299 28.4728802,4.05192727 26.5909091,4.04997405 Z" fill="#FFFFFF"></path>
    </g>
</svg>