
<svg width="30px" height="46px" viewBox="0 0 30 46" version="1.1" xmlns="http://www.w3.org/2000/svg" xmlns:xlink="http://www.w3.org/1999/xlink">
    <g stroke="none" stroke-width="1" fill="none" fill-rule="evenodd">
        <g transform="translate(-900.000000, -617.000000)">
            <g transform="translate(0.000000, -792.000000)">
                <g transform="translate(269.500000, 1254.000000)">
                    <g transform="translate(610.500000, 141.000000)">
                        <g transform="translate(20.000000, 14.000000)">
                            <path d="M25.6345998,0 C28.0455438,-2.58423159e-15 30,1.95445623 30,4.36540016 L30,42.6345998 C30,43.8797418 29.4786979,45.0031271 28.6424406,45.7984089 L28.6418755,4.27290414 C28.6418755,2.66560818 27.3389047,1.36263736 25.7316087,1.36263736 L25.7316087,1.36263736 L4.26839127,1.36263736 C2.66109531,1.36263736 1.35812449,2.66560818 1.35812449,4.27290414 L1.35812449,4.27290414 L1.35755936,45.7984089 C0.521302088,45.0031271 1.52485912e-16,43.8797418 0,42.6345998 L0,4.36540016 C-2.95255477e-16,1.95445623 1.95445623,-1.33347362e-15 4.36540016,0 L25.6345998,0 Z" id="Combined-Shape" fill="#FFFFFF"></path>
                            <path d="M22.3448797,17.8083916 L24.4686402,17.8083916 C24.9143995,17.8083916 25.0760426,17.8548044 25.2390056,17.941958 C25.4019686,18.0291115 25.5298629,18.1570058 25.6170164,18.3199688 C25.7041699,18.4829317 25.7505828,18.6445748 25.7505828,19.0903342 L25.7505828,21.1222532 C25.7505828,21.5680126 25.7041699,21.7296557 25.6170164,21.8926187 C25.5298629,22.0555816 25.4019686,22.1834759 25.2390056,22.2706295 C25.0760426,22.357783 24.9143995,22.4041958 24.4686402,22.4041958 L22.3448797,22.4041958 C21.8991203,22.4041958 21.7374772,22.357783 21.5745142,22.2706295 C21.4115512,22.1834759 21.283657,22.0555816 21.1965034,21.8926187 C21.1093499,21.7296557 21.0629371,21.5680126 21.0629371,21.1222532 L21.0629371,19.0903342 C21.0629371,18.6445748 21.1093499,18.4829317 21.1965034,18.3199688 C21.283657,18.1570058 21.4115512,18.0291115 21.5745142,17.941958 C21.7374772,17.8548044 21.8991203,17.8083916 22.3448797,17.8083916 Z" fill="#FFFFFF"></path>
                            <path d="M16.657234,17.8083916 L18.7809945,17.8083916 C19.2267538,17.8083916 19.388397,17.8548044 19.5513599,17.941958 C19.7143229,18.0291115 19.8422172,18.1570058 19.9293707,18.3199688 C20.0165243,18.4829317 20.0629371,18.6445748 20.0629371,19.0903342 L20.0629371,21.1222532 C20.0629371,21.5680126 20.0165243,21.7296557 19.9293707,21.8926187 C19.8422172,22.0555816 19.7143229,22.1834759 19.5513599,22.2706295 C19.388397,22.357783 19.2267538,22.4041958 18.7809945,22.4041958 L16.657234,22.4041958 C16.2114746,22.4041958 16.0498315,22.357783 15.8868685,22.2706295 C15.7239056,22.1834759 15.5960113,22.0555816 15.5088577,21.8926187 C15.4217042,21.7296557 15.3752914,21.5680126 15.3752914,21.1222532 L15.3752914,19.0903342 C15.3752914,18.6445748 15.4217042,18.4829317 15.5088577,18.3199688 C15.5960113,18.1570058 15.7239056,18.0291115 15.8868685,17.941958 C16.0498315,17.8548044 16.2114746,17.8083916 16.657234,17.8083916 Z" fill="#9FDBFF"></path>
                            <path d="M10.9695883,17.8083916 L13.0933488,17.8083916 C13.5391081,17.8083916 13.7007513,17.8548044 13.8637142,17.941958 C14.0266772,18.0291115 14.1545715,18.1570058 14.241725,18.3199688 C14.3288786,18.4829317 14.3752914,18.6445748 14.3752914,19.0903342 L14.3752914,21.1222532 C14.3752914,21.5680126 14.3288786,21.7296557 14.241725,21.8926187 C14.1545715,22.0555816 14.0266772,22.1834759 13.8637142,22.2706295 C13.7007513,22.357783 13.5391081,22.4041958 13.0933488,22.4041958 L10.9695883,22.4041958 C10.5238289,22.4041958 10.3621858,22.357783 10.1992228,22.2706295 C10.0362599,22.1834759 9.90836559,22.0555816 9.82121204,21.8926187 C9.73405849,21.7296557 9.68764569,21.5680126 9.68764569,21.1222532 L9.68764569,19.0903342 C9.68764569,18.6445748 9.73405849,18.4829317 9.82121204,18.3199688 C9.90836559,18.1570058 10.0362599,18.0291115 10.1992228,17.941958 C10.3621858,17.8548044 10.5238289,17.8083916 10.9695883,17.8083916 Z" fill="#FFF995"></path>
                            <path d="M5.2819426,17.8083916 L7.40570309,17.8083916 C7.85146246,17.8083916 8.01310558,17.8548044 8.17606854,17.941958 C8.3390315,18.0291115 8.46692579,18.1570058 8.55407934,18.3199688 C8.64123288,18.4829317 8.68764569,18.6445748 8.68764569,19.0903342 L8.68764569,21.1222532 C8.68764569,21.5680126 8.64123288,21.7296557 8.55407934,21.8926187 C8.46692579,22.0555816 8.3390315,22.1834759 8.17606854,22.2706295 C8.01310558,22.357783 7.85146246,22.4041958 7.40570309,22.4041958 L5.2819426,22.4041958 C4.83618323,22.4041958 4.67454011,22.357783 4.51157715,22.2706295 C4.34861419,22.1834759 4.2207199,22.0555816 4.13356635,21.8926187 C4.04641281,21.7296557 4,21.5680126 4,21.1222532 L4,19.0903342 C4,18.6445748 4.04641281,18.4829317 4.13356635,18.3199688 C4.2207199,18.1570058 4.34861419,18.0291115 4.51157715,17.941958 C4.67454011,17.8548044 4.83618323,17.8083916 5.2819426,17.8083916 Z" fill="#E18787"></path>
                            <path d="M22.3448797,12.4041958 L24.4686402,12.4041958 C24.9143995,12.4041958 25.0760426,12.4506086 25.2390056,12.5377622 C25.4019686,12.6249157 25.5298629,12.75281 25.6170164,12.915773 C25.7041699,13.0787359 25.7505828,13.240379 25.7505828,13.6861384 L25.7505828,15.7180574 C25.7505828,16.1638168 25.7041699,16.3254599 25.6170164,16.4884229 C25.5298629,16.6513858 25.4019686,16.7792801 25.2390056,16.8664336 C25.0760426,16.9535872 24.9143995,17 24.4686402,17 L22.3448797,17 C21.8991203,17 21.7374772,16.9535872 21.5745142,16.8664336 C21.4115512,16.7792801 21.283657,16.6513858 21.1965034,16.4884229 C21.1093499,16.3254599 21.0629371,16.1638168 21.0629371,15.7180574 L21.0629371,13.6861384 C21.0629371,13.240379 21.1093499,13.0787359 21.1965034,12.915773 C21.283657,12.75281 21.4115512,12.6249157 21.5745142,12.5377622 C21.7374772,12.4506086 21.8991203,12.4041958 22.3448797,12.4041958 Z" fill="#FFCCA2"></path>
                            <path d="M16.657234,12.4041958 L18.7809945,12.4041958 C19.2267538,12.4041958 19.388397,12.4506086 19.5513599,12.5377622 C19.7143229,12.6249157 19.8422172,12.75281 19.9293707,12.915773 C20.0165243,13.0787359 20.0629371,13.240379 20.0629371,13.6861384 L20.0629371,15.7180574 C20.0629371,16.1638168 20.0165243,16.3254599 19.9293707,16.4884229 C19.8422172,16.6513858 19.7143229,16.7792801 19.5513599,16.8664336 C19.388397,16.9535872 19.2267538,17 18.7809945,17 L16.657234,17 C16.2114746,17 16.0498315,16.9535872 15.8868685,16.8664336 C15.7239056,16.7792801 15.5960113,16.6513858 15.5088577,16.4884229 C15.4217042,16.3254599 15.3752914,16.1638168 15.3752914,15.7180574 L15.3752914,13.6861384 C15.3752914,13.240379 15.4217042,13.0787359 15.5088577,12.915773 C15.5960113,12.75281 15.7239056,12.6249157 15.8868685,12.5377622 C16.0498315,12.4506086 16.2114746,12.4041958 16.657234,12.4041958 Z" fill="#93AAFF"></path>
                            <path d="M10.9695883,12.4041958 L13.0933488,12.4041958 C13.5391081,12.4041958 13.7007513,12.4506086 13.8637142,12.5377622 C14.0266772,12.6249157 14.1545715,12.75281 14.241725,12.915773 C14.3288786,13.0787359 14.3752914,13.240379 14.3752914,13.6861384 L14.3752914,15.7180574 C14.3752914,16.1638168 14.3288786,16.3254599 14.241725,16.4884229 C14.1545715,16.6513858 14.0266772,16.7792801 13.8637142,16.8664336 C13.7007513,16.9535872 13.5391081,17 13.0933488,17 L10.9695883,17 C10.5238289,17 10.3621858,16.9535872 10.1992228,16.8664336 C10.0362599,16.7792801 9.90836559,16.6513858 9.82121204,16.4884229 C9.73405849,16.3254599 9.68764569,16.1638168 9.68764569,15.7180574 L9.68764569,13.6861384 C9.68764569,13.240379 9.73405849,13.0787359 9.82121204,12.915773 C9.90836559,12.75281 10.0362599,12.6249157 10.1992228,12.5377622 C10.3621858,12.4506086 10.5238289,12.4041958 10.9695883,12.4041958 Z" fill="#8CFFA9"></path>
                            <path d="M5.2819426,12.4041958 L7.40570309,12.4041958 C7.85146246,12.4041958 8.01310558,12.4506086 8.17606854,12.5377622 C8.3390315,12.6249157 8.46692579,12.75281 8.55407934,12.915773 C8.64123288,13.0787359 8.68764569,13.240379 8.68764569,13.6861384 L8.68764569,15.7180574 C8.68764569,16.1638168 8.64123288,16.3254599 8.55407934,16.4884229 C8.46692579,16.6513858 8.3390315,16.7792801 8.17606854,16.8664336 C8.01310558,16.9535872 7.85146246,17 7.40570309,17 L5.2819426,17 C4.83618323,17 4.67454011,16.9535872 4.51157715,16.8664336 C4.34861419,16.7792801 4.2207199,16.6513858 4.13356635,16.4884229 C4.04641281,16.3254599 4,16.1638168 4,15.7180574 L4,13.6861384 C4,13.240379 4.04641281,13.0787359 4.13356635,12.915773 C4.2207199,12.75281 4.34861419,12.6249157 4.51157715,12.5377622 C4.67454011,12.4506086 4.83618323,12.4041958 5.2819426,12.4041958 Z" fill="#C89AF2"></path>
                            <path d="M22.3448797,7 L24.4686402,7 C24.9143995,7 25.0760426,7.04641281 25.2390056,7.13356635 C25.4019686,7.2207199 25.5298629,7.34861419 25.6170164,7.51157715 C25.7041699,7.67454011 25.7505828,7.83618323 25.7505828,8.2819426 L25.7505828,10.3138616 C25.7505828,10.759621 25.7041699,10.9212641 25.6170164,11.084227 C25.5298629,11.24719 25.4019686,11.3750843 25.2390056,11.4622378 C25.0760426,11.5493914 24.9143995,11.5958042 24.4686402,11.5958042 L22.3448797,11.5958042 C21.8991203,11.5958042 21.7374772,11.5493914 21.5745142,11.4622378 C21.4115512,11.3750843 21.283657,11.24719 21.1965034,11.084227 C21.1093499,10.9212641 21.0629371,10.759621 21.0629371,10.3138616 L21.0629371,8.2819426 C21.0629371,7.83618323 21.1093499,7.67454011 21.1965034,7.51157715 C21.283657,7.34861419 21.4115512,7.2207199 21.5745142,7.13356635 C21.7374772,7.04641281 21.8991203,7 22.3448797,7 Z" fill="#87EEFF"></path>
                            <path d="M16.657234,7 L18.7809945,7 C19.2267538,7 19.388397,7.04641281 19.5513599,7.13356635 C19.7143229,7.2207199 19.8422172,7.34861419 19.9293707,7.51157715 C20.0165243,7.67454011 20.0629371,7.83618323 20.0629371,8.2819426 L20.0629371,10.3138616 C20.0629371,10.759621 20.0165243,10.9212641 19.9293707,11.084227 C19.8422172,11.24719 19.7143229,11.3750843 19.5513599,11.4622378 C19.388397,11.5493914 19.2267538,11.5958042 18.7809945,11.5958042 L16.657234,11.5958042 C16.2114746,11.5958042 16.0498315,11.5493914 15.8868685,11.4622378 C15.7239056,11.3750843 15.5960113,11.24719 15.5088577,11.084227 C15.4217042,10.9212641 15.3752914,10.759621 15.3752914,10.3138616 L15.3752914,8.2819426 C15.3752914,7.83618323 15.4217042,7.67454011 15.5088577,7.51157715 C15.5960113,7.34861419 15.7239056,7.2207199 15.8868685,7.13356635 C16.0498315,7.04641281 16.2114746,7 16.657234,7 Z" fill="#FF81B0"></path>
                            <path d="M10.9695883,7 L13.0933488,7 C13.5391081,7 13.7007513,7.04641281 13.8637142,7.13356635 C14.0266772,7.2207199 14.1545715,7.34861419 14.241725,7.51157715 C14.3288786,7.67454011 14.3752914,7.83618323 14.3752914,8.2819426 L14.3752914,10.3138616 C14.3752914,10.759621 14.3288786,10.9212641 14.241725,11.084227 C14.1545715,11.24719 14.0266772,11.3750843 13.8637142,11.4622378 C13.7007513,11.5493914 13.5391081,11.5958042 13.0933488,11.5958042 L10.9695883,11.5958042 C10.5238289,11.5958042 10.3621858,11.5493914 10.1992228,11.4622378 C10.0362599,11.3750843 9.90836559,11.24719 9.82121204,11.084227 C9.73405849,10.9212641 9.68764569,10.759621 9.68764569,10.3138616 L9.68764569,8.2819426 C9.68764569,7.83618323 9.73405849,7.67454011 9.82121204,7.51157715 C9.90836559,7.34861419 10.0362599,7.2207199 10.1992228,7.13356635 C10.3621858,7.04641281 10.5238289,7 10.9695883,7 Z" fill="#FFE25F"></path>
                            <path d="M5.2819426,7 L7.40570309,7 C7.85146246,7 8.01310558,7.04641281 8.17606854,7.13356635 C8.3390315,7.2207199 8.46692579,7.34861419 8.55407934,7.51157715 C8.64123288,7.67454011 8.68764569,7.83618323 8.68764569,8.2819426 L8.68764569,10.3138616 C8.68764569,10.759621 8.64123288,10.9212641 8.55407934,11.084227 C8.46692579,11.24719 8.3390315,11.3750843 8.17606854,11.4622378 C8.01310558,11.5493914 7.85146246,11.5958042 7.40570309,11.5958042 L5.2819426,11.5958042 C4.83618323,11.5958042 4.67454011,11.5493914 4.51157715,11.4622378 C4.34861419,11.3750843 4.2207199,11.24719 4.13356635,11.084227 C4.04641281,10.9212641 4,10.759621 4,10.3138616 L4,8.2819426 C4,7.83618323 4.04641281,7.67454011 4.13356635,7.51157715 C4.2207199,7.34861419 4.34861419,7.2207199 4.51157715,7.13356635 C4.67454011,7.04641281 4.83618323,7 5.2819426,7 Z" fill="#81FFE2"></path>
                        </g>
                    </g>
                </g>
            </g>
        </g>
    </g>
</svg>