
<svg width="30px" height="30px" viewBox="0 0 30 30" version="1.1" xmlns="http://www.w3.org/2000/svg" xmlns:xlink="http://www.w3.org/1999/xlink">
    <g stroke="none" stroke-width="1" fill="none" fill-rule="evenodd">
        <g transform="translate(-594.000000, -625.000000)" fill="#93FB7E">
            <g transform="translate(0.000000, -792.000000)">
                <g transform="translate(269.500000, 1254.000000)">
                    <g transform="translate(304.500000, 141.000000)">
                        <path d="M35,22 C43.2842712,22 50,28.7157288 50,37 C50,45.2842712 43.2842712,52 35,52 C26.7157288,52 20,45.2842712 20,37 C20,28.7157288 26.7157288,22 35,22 Z M35,24.967033 C28.3543758,24.967033 22.967033,30.3543758 22.967033,37 C22.967033,43.6456242 28.3543758,49.032967 35,49.032967 C41.6456242,49.032967 47.032967,43.6456242 47.032967,37 C47.032967,30.3543758 41.6456242,24.967033 35,24.967033 Z M39.0703298,32.483964 C39.4057235,32.0665767 40.0117407,32.0041636 40.4234476,32.3441847 C40.8351545,32.6842059 40.8967182,33.2985844 40.5613245,33.7159717 L40.5613245,33.7159717 L34.0394252,41.8270681 C33.6809452,42.2730614 33.0210598,42.3088189 32.6176896,41.9050845 L32.6176896,41.9050845 L29.6607104,38.9404644 C29.2829918,38.5620853 29.2791441,37.9444561 29.653015,37.561526 C30.0262446,37.1785959 30.6354683,37.1746951 31.0131869,37.5537243 L31.0131869,37.5537243 L33.2275545,39.770688 Z"></path>
                    </g>
                </g>
            </g>
        </g>
    </g>
</svg>