
<svg width="30px" height="28px" viewBox="0 0 31 28" version="1.1" xmlns="http://www.w3.org/2000/svg" xmlns:xlink="http://www.w3.org/1999/xlink">
    <g  stroke="none" stroke-width="1" fill="none" fill-rule="evenodd">
        <path d="M8.70892089,24.9375 C9.0588684,24.9375 9.36507246,25.24375 9.36507246,25.59375 L9.36507246,27.34375 C9.36507246,27.69375 9.0588684,28 8.70892089,28 C8.35897338,28 8.05276932,27.69375 8.05276932,27.34375 L8.05276932,25.59375 C8.05276932,25.24375 8.35897338,24.9375 8.70892089,24.9375 Z M17.3268157,21.74375 L18.5949379,22.96875 C18.857836,23.23125 18.857836,23.625 18.5949379,23.8875 C18.3604731,24.122875 17.8674846,24.122875 17.6330197,23.8875 L16.407766,22.6625 C16.1453054,22.4 16.1453054,22.00625 16.407766,21.74375 C16.6706641,21.4808125 17.0639176,21.4808125 17.3268157,21.74375 Z M8.94752146,5 C13.8891011,5 17.8950429,9.02943725 17.8950429,14 C17.8950429,18.9705627 13.8891011,23 8.94752146,23 C4.00594181,23 2.11919879e-14,18.9705627 2.11919879e-14,14 C2.11919879e-14,9.02943725 4.00594181,5 8.94752146,5 Z M22.0506696,13.34375 C22.4006171,13.34375 22.7068211,13.65 22.7068211,14 C22.7068211,14.35 22.4006171,14.65625 22.0506696,14.65625 L20.300932,14.65625 C19.9509845,14.65625 19.6447805,14.35 19.6447805,14 C19.6447805,13.65 19.9509845,13.34375 20.300932,13.34375 L22.0506696,13.34375 Z M18.5949379,4.1125 C18.857836,4.375 18.857836,4.76875 18.5949379,5.03125 L17.3701217,6.25625 C17.1352194,6.491625 16.6431057,6.491625 16.407766,6.25625 C16.1453054,5.99375 16.1453054,5.6 16.407766,5.3375 L17.6330197,4.1125 C17.9387864,3.85 18.3324773,3.85 18.5949379,4.1125 Z M8.70892089,0 C9.0588684,0 9.36507246,0.30625 9.36507246,0.65625 L9.36507246,2.40625 C9.36507246,2.75625 9.0588684,3.0625 8.70892089,3.0625 C8.35897338,3.0625 8.05276932,2.75625 8.05276932,2.40625 L8.05276932,0.65625 C8.05276932,0.30625 8.35897338,0 8.70892089,0 Z" fill="#FFE14D" transform="translate(11.353411, 14.000000) scale(-1, 1) translate(-11.353411, -14.000000) "></path>
        <path d="M19.3866437,22.8592651 C18.1167551,22.8563952 16.8461826,22.5476144 15.7062938,21.9331973 C17.6730976,20.2768508 18.9374167,17.7885476 18.9311632,14.9914637 C18.9249098,12.1943797 17.6494517,9.70037704 15.6752219,8.03518634 C16.8123747,7.42587921 18.0377901,7.12269968 19.351468,7.12562645 C23.6866049,7.13537636 27.2414496,10.6833955 27.2511427,15.0101348 C27.2607963,19.336874 23.7217806,22.8689736 19.3866437,22.8592651 Z" fill="#87D9FF" transform="translate(21.463182, 14.992446) scale(-1, 1) rotate(25.000000) translate(-21.463182, -14.992446) "></path>
    </g>
</svg>