<?xml version="1.0" encoding="UTF-8"?>
<svg width="130px" height="32px" viewBox="0 0 130 32" version="1.1" xmlns="http://www.w3.org/2000/svg" xmlns:xlink="http://www.w3.org/1999/xlink">
    <title>charbz</title>
    <g stroke="none" stroke-width="1" fill="none" fill-rule="evenodd">
        <g fill="currentColor" fill-rule="nonzero">
            <path d="M11.455925,32 C9.23960424,32 7.26291538,31.5449929 5.52579912,30.634965 C3.78868285,29.7249372 2.43345299,28.4345072 1.46006887,26.7636364 C0.486684757,25.0927655 -5.68434189e-14,23.1683093 -5.68434189e-14,20.9902098 C-5.68434189e-14,18.8121103 0.486684757,16.887654 1.46006887,15.2167832 C2.43345299,13.5459124 3.78868285,12.2554824 5.52579912,11.3454545 C7.26291538,10.4354267 9.23960424,9.98041958 11.455925,9.98041958 C14.0915497,9.98041958 16.517486,10.6666598 18.7338068,12.0391608 L16.3527714,16.5594406 C14.8253071,15.6046572 13.2229911,15.1272727 11.5457754,15.1272727 C9.8386094,15.1272727 8.43096734,15.6717894 7.32280696,16.7608392 C6.21464658,17.8498889 5.6605747,19.259665 5.6605747,20.9902098 C5.6605747,22.7207546 6.21464658,24.1305307 7.32280696,25.2195804 C8.43096734,26.3086302 9.8386094,26.8531469 11.5457754,26.8531469 C13.2229911,26.8531469 14.8253071,26.3757623 16.3527714,25.420979 L18.7338068,29.9412587 C16.517486,31.3137598 14.0915497,32 11.455925,32 Z M27.0489205,13.6055944 L27.1387708,13.6055944 C28.6662351,11.1887991 30.9124725,9.98041958 33.8775503,9.98041958 C36.2735727,9.98041958 38.175387,10.6815781 39.5830502,12.0839161 C40.9907133,13.4862541 41.6945344,15.6494026 41.6945344,18.5734266 L41.6945344,31.3286713 L36.1687353,31.3286713 L36.1687353,19.8713287 C36.1687353,16.6787719 34.7311434,15.0825175 31.8559164,15.0825175 C30.3584024,15.0825175 29.1828715,15.5748203 28.3292885,16.5594406 C27.4757055,17.5440609 27.0489205,19.0955605 27.0489205,21.213986 L27.0489205,31.3286713 L21.5231213,31.3286713 L21.5231213,0 L27.0489205,0 L27.0489205,13.6055944 Z M54.816644,32 C52.9896769,32 51.3124864,31.5673703 49.7850221,30.7020979 C48.2575578,29.8368255 47.0520771,28.5762321 46.1685438,26.9202797 C45.2850105,25.2643274 44.8432505,23.2876572 44.8432505,20.9902098 C44.8432505,18.6927624 45.2850105,16.7160922 46.1685438,15.0601399 C47.0520771,13.4041875 48.2575578,12.1435941 49.7850221,11.2783217 C51.3124864,10.4130493 52.9896769,9.98041958 54.816644,9.98041958 C56.4339592,9.98041958 57.8191389,10.2937032 58.9722247,10.9202797 C60.1253105,11.5468563 61.0462678,12.427034 61.7351242,13.5608392 L61.8249746,13.5608392 L61.8249746,10.6517483 L67.3058485,10.6517483 L67.3058485,31.3286713 L61.8249746,31.3286713 L61.8249746,28.4195804 L61.7351242,28.4195804 C61.0462678,29.5533856 60.1253105,30.4335633 58.9722247,31.0601399 C57.8191389,31.6867164 56.4339592,32 54.816644,32 Z M56.2093251,26.8083916 C57.8865408,26.8083916 59.2417707,26.271334 60.2750554,25.1972028 C61.30834,24.1230716 61.8249746,22.7207546 61.8249746,20.9902098 C61.8249746,19.259665 61.30834,17.857348 60.2750554,16.7832168 C59.2417707,15.7090855 57.8865408,15.172028 56.2093251,15.172028 C54.5321094,15.172028 53.1768795,15.7090855 52.1435949,16.7832168 C51.1103102,17.857348 50.5936756,19.259665 50.5936756,20.9902098 C50.5936756,22.7207546 51.1103102,24.1230716 52.1435949,25.1972028 C53.1768795,26.271334 54.5321094,26.8083916 56.2093251,26.8083916 Z M84.4712259,15.9328671 L83.8422731,15.9328671 C81.5960021,15.9328671 79.9487614,16.4699247 78.9005015,17.5440559 C77.8522417,18.6181872 77.3281197,20.3934608 77.3281197,22.8699301 L77.3281197,31.3286713 L71.8472458,31.3286713 L71.8472458,10.6517483 L77.2831945,10.6517483 L77.2831945,15.0377622 L77.3730449,15.0377622 C77.9121499,13.4265654 78.7657201,12.1883493 79.9337811,11.3230769 C81.101842,10.4578045 82.5394339,10.0251748 84.2465999,10.0251748 L84.4712259,10.0251748 L84.4712259,15.9328671 Z M99.7497449,32 C98.1324298,32 96.7472501,31.6867164 95.5941643,31.0601399 C94.4410785,30.4335633 93.5201212,29.5533856 92.8312647,28.4195804 L92.7414144,28.4195804 L92.7414144,31.3286713 L87.2156152,31.3286713 L87.2156152,0 L92.7414144,0 L92.7414144,13.5608392 L92.8312647,13.5608392 C93.5201212,12.427034 94.4410785,11.5468563 95.5941643,10.9202797 C96.7472501,10.2937032 98.1324298,9.98041958 99.7497449,9.98041958 C101.576712,9.98041958 103.253903,10.4130493 104.781367,11.2783217 C106.308831,12.1435941 107.514312,13.4041875 108.397845,15.0601399 C109.281378,16.7160922 109.723138,18.6927624 109.723138,20.9902098 C109.723138,23.2876572 109.281378,25.2643274 108.397845,26.9202797 C107.514312,28.5762321 106.308831,29.8368298 104.781367,30.7020979 C103.253903,31.5673703 101.576712,32 99.7497449,32 Z M98.3570639,26.8083916 C100.03428,26.8083916 101.389509,26.271334 102.422794,25.1972028 C103.456079,24.1230716 103.972713,22.7207546 103.972713,20.9902098 C103.972713,19.259665 103.456079,17.857348 102.422794,16.7832168 C101.389509,15.7090855 100.03428,15.172028 98.3570639,15.172028 C96.6798482,15.172028 95.3246183,15.7090855 94.2913336,16.7832168 C93.2580489,17.857348 92.7414144,19.259665 92.7414144,20.9902098 C92.7414144,22.7207546 93.2580489,24.1230716 94.2913336,25.1972028 C95.3246183,26.271334 96.6798482,26.8083916 98.3570639,26.8083916 Z M130,26.4951049 L130,31.3286713 L111.940071,31.3286713 L111.940071,26.8979021 L122.497492,15.4853147 L112.524099,15.4853147 L112.524099,10.6517483 L129.236272,10.6517483 L129.236272,15.0377622 L118.589,26.4951049 L130,26.4951049 Z" id="charbz"></path>
        </g>
    </g>
</svg>